<svg width="116" height="64" viewBox="0 0 116 64" fill="none" xmlns="http://www.w3.org/2000/svg">
<path d="M66.7402 21.9766H71.293V34.5449H76.6895V21.9766H81.2422V52H76.6895V38.1309H71.293V52H66.7402V21.9766Z" fill="black"/>
<path d="M85.5146 35.1099C85.1924 35.1099 84.8677 35.0635 84.5405 34.9707C84.2134 34.873 83.9106 34.6777 83.6323 34.3848C83.3589 34.0918 83.1392 33.6499 82.9731 33.0591C82.8071 32.4634 82.7241 31.6675 82.7241 30.6714V29.0894C82.7241 28.1079 82.8096 27.3315 82.9805 26.7603C83.1514 26.1841 83.376 25.7568 83.6543 25.4785C83.9326 25.1953 84.2354 25.0122 84.5625 24.9292C84.8896 24.8413 85.2095 24.7974 85.522 24.7974C85.8247 24.7974 86.1372 24.8389 86.4595 24.9219C86.7817 25 87.0796 25.1782 87.353 25.4565C87.6265 25.73 87.8486 26.1572 88.0195 26.7383C88.1904 27.3145 88.2759 28.0981 88.2759 29.0894V30.6714C88.2759 31.6528 88.188 32.439 88.0122 33.0298C87.8364 33.6157 87.6094 34.0601 87.3311 34.3628C87.0527 34.6606 86.7524 34.8608 86.4302 34.9634C86.1128 35.061 85.8076 35.1099 85.5146 35.1099ZM85.5293 33.7329C85.8613 33.7329 86.0908 33.5498 86.2178 33.1836C86.3496 32.8174 86.4155 32.1631 86.4155 31.2207V28.7085C86.4155 27.7612 86.3496 27.1021 86.2178 26.731C86.0908 26.3599 85.8613 26.1743 85.5293 26.1743C85.1826 26.1743 84.9385 26.3599 84.7969 26.731C84.6553 27.1021 84.5845 27.7612 84.5845 28.7085V31.2207C84.5845 32.1631 84.6553 32.8174 84.7969 33.1836C84.9385 33.5498 85.1826 33.7329 85.5293 33.7329ZM90.0044 26.3208H89.1475V24.9146H90.1655L90.5391 22.2998H91.8574V24.9146H93.542V26.3208H91.8574V32.5024C91.8574 32.9419 91.9355 33.2202 92.0918 33.3374C92.2529 33.4546 92.4409 33.5132 92.6558 33.5132C92.9976 33.5132 93.2905 33.4375 93.5347 33.2861V34.458C93.3247 34.7168 93.0806 34.8926 92.8022 34.9854C92.5239 35.0732 92.2554 35.1172 91.9966 35.1172C91.6548 35.1172 91.3301 35.0513 91.0225 34.9194C90.7197 34.7827 90.4731 34.5264 90.2827 34.1504C90.0972 33.7695 90.0044 33.2153 90.0044 32.4878V26.3208ZM94.2231 30.8691V28.9648C94.2231 28.1934 94.2891 27.5537 94.4209 27.0459C94.5527 26.5381 94.7261 26.1328 94.9409 25.8301C95.1606 25.5273 95.3999 25.3027 95.6587 25.1562C95.9224 25.0098 96.1836 24.9146 96.4424 24.8706C96.7012 24.8218 96.938 24.7974 97.1528 24.7974C97.5972 24.7974 98.0073 24.8926 98.3833 25.083C98.7593 25.2686 99.0596 25.5908 99.2842 26.0498C99.5137 26.5039 99.6284 27.1362 99.6284 27.9468C99.6284 28.3521 99.6064 28.7671 99.5625 29.1919C99.5186 29.6118 99.46 29.9829 99.3867 30.3052H96.0835V31.3306C96.0835 32.2095 96.1567 32.8296 96.3032 33.1909C96.4546 33.5522 96.7402 33.7329 97.1602 33.7329C97.3896 33.7329 97.5972 33.6353 97.7827 33.4399C97.9683 33.2397 98.061 32.8735 98.061 32.3413V31.9019H99.5845V32.3633C99.5845 33.3203 99.355 34.0186 98.896 34.458C98.4419 34.8926 97.7827 35.1099 96.9185 35.1099C96.0493 35.1099 95.3828 34.7778 94.9189 34.1138C94.4551 33.4497 94.2231 32.3682 94.2231 30.8691ZM97.8999 29.0601C97.9097 28.9526 97.917 28.7915 97.9219 28.5767C97.9268 28.3569 97.9292 28.1812 97.9292 28.0493C97.9292 27.3804 97.8584 26.9019 97.7168 26.6138C97.5752 26.3257 97.3506 26.1792 97.043 26.1743C96.7158 26.1743 96.4741 26.3403 96.3179 26.6724C96.1616 26.9995 96.0835 27.5977 96.0835 28.4668V29.0601H97.8999ZM101.167 21.6772H103.02V35H101.167V21.6772Z" fill="#554118"/>
<path d="M85.5601 50.1099C85.2378 50.1099 84.9131 50.0635 84.5859 49.9707C84.2588 49.873 83.9561 49.6777 83.6777 49.3848C83.4043 49.0918 83.1846 48.6499 83.0186 48.0591C82.8525 47.4634 82.7695 46.6675 82.7695 45.6714V44.0894C82.7695 43.1079 82.855 42.3315 83.0259 41.7603C83.1968 41.1841 83.4214 40.7568 83.6997 40.4785C83.978 40.1953 84.2808 40.0122 84.6079 39.9292C84.9351 39.8413 85.2549 39.7974 85.5674 39.7974C85.8701 39.7974 86.1826 39.8389 86.5049 39.9219C86.8271 40 87.125 40.1782 87.3984 40.4565C87.6719 40.73 87.894 41.1572 88.0649 41.7383C88.2358 42.3145 88.3213 43.0981 88.3213 44.0894V45.6714C88.3213 46.6528 88.2334 47.439 88.0576 48.0298C87.8818 48.6157 87.6548 49.0601 87.3765 49.3628C87.0981 49.6606 86.7979 49.8608 86.4756 49.9634C86.1582 50.061 85.853 50.1099 85.5601 50.1099ZM85.5747 48.7329C85.9067 48.7329 86.1362 48.5498 86.2632 48.1836C86.395 47.8174 86.4609 47.1631 86.4609 46.2207V43.7085C86.4609 42.7612 86.395 42.1021 86.2632 41.731C86.1362 41.3599 85.9067 41.1743 85.5747 41.1743C85.228 41.1743 84.9839 41.3599 84.8423 41.731C84.7007 42.1021 84.6299 42.7612 84.6299 43.7085V46.2207C84.6299 47.1631 84.7007 47.8174 84.8423 48.1836C84.9839 48.5498 85.228 48.7329 85.5747 48.7329ZM91.8076 50.5713V53.2593H89.9546V39.9146H91.4048L91.5732 40.9766C91.7441 40.6982 91.9785 40.4346 92.2764 40.1855C92.5742 39.9316 92.9624 39.8047 93.4409 39.8047C93.5972 39.8047 93.79 39.8364 94.0195 39.8999C94.2539 39.9585 94.4858 40.1025 94.7153 40.332C94.9497 40.5566 95.145 40.9131 95.3013 41.4014C95.4575 41.8896 95.5356 42.5635 95.5356 43.4229V46.4771C95.5356 47.3315 95.4551 48.0054 95.2939 48.4985C95.1377 48.9868 94.9399 49.3481 94.7007 49.5825C94.4663 49.812 94.2271 49.9585 93.9829 50.022C93.7437 50.0854 93.5386 50.1172 93.3677 50.1172C92.9771 50.1172 92.6499 50.0391 92.3862 49.8828C92.1274 49.7266 91.915 49.5435 91.749 49.3335L91.8076 50.5713ZM91.8076 47.8101C91.8906 48.0005 92.0029 48.1714 92.1445 48.3228C92.291 48.4741 92.4888 48.5498 92.7378 48.5498C92.9185 48.5498 93.0771 48.501 93.2139 48.4033C93.3555 48.3057 93.4653 48.125 93.5435 47.8613C93.6265 47.5928 93.668 47.2095 93.668 46.7114V43.1372C93.668 42.6343 93.6289 42.2534 93.5508 41.9946C93.4727 41.731 93.3628 41.5503 93.2212 41.4526C93.0845 41.355 92.9258 41.3062 92.7451 41.3062C92.5156 41.3062 92.3252 41.377 92.1738 41.5186C92.0225 41.6553 91.9004 41.8164 91.8076 42.002V47.8101ZM99.0439 50.5713V53.2593H97.1909V39.9146H98.6411L98.8096 40.9766C98.9805 40.6982 99.2148 40.4346 99.5127 40.1855C99.8105 39.9316 100.199 39.8047 100.677 39.8047C100.833 39.8047 101.026 39.8364 101.256 39.8999C101.49 39.9585 101.722 40.1025 101.952 40.332C102.186 40.5566 102.381 40.9131 102.538 41.4014C102.694 41.8896 102.772 42.5635 102.772 43.4229V46.4771C102.772 47.3315 102.691 48.0054 102.53 48.4985C102.374 48.9868 102.176 49.3481 101.937 49.5825C101.703 49.812 101.463 49.9585 101.219 50.022C100.98 50.0854 100.775 50.1172 100.604 50.1172C100.213 50.1172 99.8862 50.0391 99.6226 49.8828C99.3638 49.7266 99.1514 49.5435 98.9854 49.3335L99.0439 50.5713ZM99.0439 47.8101C99.127 48.0005 99.2393 48.1714 99.3809 48.3228C99.5273 48.4741 99.7251 48.5498 99.9741 48.5498C100.155 48.5498 100.313 48.501 100.45 48.4033C100.592 48.3057 100.702 48.125 100.78 47.8613C100.863 47.5928 100.904 47.2095 100.904 46.7114V43.1372C100.904 42.6343 100.865 42.2534 100.787 41.9946C100.709 41.731 100.599 41.5503 100.458 41.4526C100.321 41.355 100.162 41.3062 99.9814 41.3062C99.752 41.3062 99.5615 41.377 99.4102 41.5186C99.2588 41.6553 99.1367 41.8164 99.0439 42.002V47.8101ZM104.2 45.8691V43.9648C104.2 43.1934 104.266 42.5537 104.398 42.0459C104.53 41.5381 104.703 41.1328 104.918 40.8301C105.138 40.5273 105.377 40.3027 105.636 40.1562C105.899 40.0098 106.161 39.9146 106.419 39.8706C106.678 39.8218 106.915 39.7974 107.13 39.7974C107.574 39.7974 107.984 39.8926 108.36 40.083C108.736 40.2686 109.037 40.5908 109.261 41.0498C109.491 41.5039 109.605 42.1362 109.605 42.9468C109.605 43.3521 109.583 43.7671 109.54 44.1919C109.496 44.6118 109.437 44.9829 109.364 45.3052H106.061V46.3306C106.061 47.2095 106.134 47.8296 106.28 48.1909C106.432 48.5522 106.717 48.7329 107.137 48.7329C107.367 48.7329 107.574 48.6353 107.76 48.4399C107.945 48.2397 108.038 47.8735 108.038 47.3413V46.9019H109.562V47.3633C109.562 48.3203 109.332 49.0186 108.873 49.458C108.419 49.8926 107.76 50.1099 106.896 50.1099C106.026 50.1099 105.36 49.7778 104.896 49.1138C104.432 48.4497 104.2 47.3682 104.2 45.8691ZM107.877 44.0601C107.887 43.9526 107.894 43.7915 107.899 43.5767C107.904 43.3569 107.906 43.1812 107.906 43.0493C107.906 42.3804 107.835 41.9019 107.694 41.6138C107.552 41.3257 107.328 41.1792 107.02 41.1743C106.693 41.1743 106.451 41.3403 106.295 41.6724C106.139 41.9995 106.061 42.5977 106.061 43.4668V44.0601H107.877ZM111.144 39.9146H112.499L112.66 40.9399C112.86 40.5591 113.094 40.2734 113.363 40.083C113.631 39.8926 113.905 39.7974 114.183 39.7974C115.223 39.7974 115.743 40.4517 115.743 41.7603C115.743 41.9263 115.719 42.146 115.67 42.4194C115.621 42.688 115.562 42.9248 115.494 43.1299H114.205V42.3462C114.205 41.9409 114.144 41.6675 114.022 41.5259C113.9 41.3794 113.749 41.3062 113.568 41.3062C113.338 41.3062 113.148 41.4868 112.997 41.8481V50H111.144V39.9146Z" fill="#D9D9D9"/>
<path d="M60 58.4998H56.07V31.9998C56.07 31.602 55.912 31.2204 55.6307 30.9391C55.3494 30.6578 54.9678 30.4998 54.57 30.4998H45.76V12.9998C45.7612 12.6886 45.6656 12.3848 45.4864 12.1303C45.3072 11.8759 45.0534 11.6835 44.76 11.5798L19.07 2.5798C18.8437 2.50314 18.6024 2.4813 18.3659 2.51607C18.1295 2.55084 17.9047 2.64122 17.71 2.7798C17.5142 2.91713 17.3547 3.09985 17.245 3.31232C17.1352 3.52479 17.0786 3.76068 17.08 3.9998V20.1798H9.43C9.03218 20.1798 8.65064 20.3378 8.36934 20.6191C8.08804 20.9004 7.93 21.282 7.93 21.6798V58.4998H4C3.60218 58.4998 3.22064 58.6578 2.93934 58.9391C2.65804 59.2204 2.5 59.602 2.5 59.9998C2.5 60.3976 2.65804 60.7792 2.93934 61.0605C3.22064 61.3418 3.60218 61.4998 4 61.4998H60C60.3978 61.4998 60.7794 61.3418 61.0607 61.0605C61.342 60.7792 61.5 60.3976 61.5 59.9998C61.5 59.602 61.342 59.2204 61.0607 58.9391C60.7794 58.6578 60.3978 58.4998 60 58.4998ZM26.24 58.4998H10.93V23.1798H26.24V58.4998ZM53.07 58.4998H38.57V33.4998H53.07V58.4998Z" fill="black"/>
</svg>
